<?xml version="1.0" encoding="utf-8"?>
<!-- Generator: Adobe Illustrator 26.5.0, SVG Export Plug-In . SVG Version: 6.00 Build 0)  -->
<svg version="1.1" id="Camada_1" xmlns="http://www.w3.org/2000/svg" xmlns:xlink="http://www.w3.org/1999/xlink" x="0px" y="0px"
	 viewBox="0 0 1546.6 362.9" style="enable-background:new 0 0 1546.6 362.9;" xml:space="preserve">
<style type="text/css">
	.st0{fill:#416070;}
</style>
<g id="FUNDO">
</g>
<g id="Camada_3">
</g>
<g>
	<path class="st0" d="M415.3,270.8c-5.6,2.9-18.1,6.9-34.1,6.9c-35.8,0-59.1-24.3-59.1-60.6c0-36.5,25-63,63.8-63
		c12.8,0,24,3.2,29.9,6.1l-4.9,16.7c-5.1-2.9-13.2-5.6-25-5.6c-27.2,0-41.9,20.1-41.9,44.9c0,27.5,17.7,44.4,41.2,44.4
		c12.3,0,20.4-3.2,26.5-5.9L415.3,270.8z"/>
	<path class="st0" d="M440.6,101.1h21.6v174.1h-21.6V101.1z"/>
	<path class="st0" d="M605.8,214.9c0,43.9-30.4,63-59.1,63c-32.1,0-56.9-23.5-56.9-61.1c0-39.7,26-63,58.9-63
		C582.8,153.8,605.8,178.6,605.8,214.9z M511.7,216.1c0,26,15,45.6,36,45.6c20.6,0,36-19.4,36-46.1c0-20.1-10.1-45.6-35.6-45.6
		C522.7,170,511.7,193.5,511.7,216.1z"/>
	<path class="st0" d="M630.1,253.1c6.4,4.2,17.7,8.6,28.4,8.6c15.7,0,23-7.8,23-17.7c0-10.3-6.1-15.9-22.1-21.8
		c-21.3-7.6-31.4-19.4-31.4-33.6c0-19.1,15.4-34.8,40.9-34.8c12,0,22.6,3.4,29.2,7.4l-5.4,15.7c-4.7-2.9-13.2-6.9-24.3-6.9
		c-12.8,0-19.9,7.4-19.9,16.2c0,9.8,7.1,14.2,22.6,20.1c20.6,7.8,31.1,18.1,31.1,35.8c0,20.8-16.2,35.6-44.4,35.6
		c-13,0-25-3.2-33.3-8.1L630.1,253.1z"/>
	<path class="st0" d="M742.2,219.8c0.5,29.2,19.1,41.2,40.7,41.2c15.4,0,24.8-2.7,32.9-6.1l3.7,15.4c-7.6,3.4-20.6,7.4-39.5,7.4
		c-36.5,0-58.4-24-58.4-59.8c0-35.8,21.1-64,55.7-64c38.7,0,49,34.1,49,55.9c0,4.4-0.5,7.8-0.7,10.1H742.2z M805.4,204.3
		c0.2-13.7-5.6-35.1-29.9-35.1c-21.8,0-31.4,20.1-33.1,35.1H805.4z"/>
	<path class="st0" d="M879,122.4v34.1h30.9v16.4H879v64c0,14.7,4.2,23,16.2,23c5.6,0,9.8-0.7,12.5-1.5l1,16.2
		c-4.2,1.7-10.8,2.9-19.1,2.9c-10.1,0-18.1-3.2-23.3-9.1c-6.1-6.4-8.3-16.9-8.3-30.9v-64.7h-18.4v-16.4h18.4v-28.4L879,122.4z"/>
	<path class="st0" d="M986.2,188.6c0-12.3-0.2-22.3-1-32.1h19.1l1.2,19.6h0.5c5.9-11.3,19.6-22.3,39.2-22.3
		c16.4,0,41.9,9.8,41.9,50.5v70.9h-21.6v-68.4c0-19.1-7.1-35.1-27.5-35.1c-14.2,0-25.3,10.1-28.9,22.1c-1,2.7-1.5,6.4-1.5,10.1v71.4
		h-21.6V188.6z"/>
	<path class="st0" d="M1229.6,214.9c0,43.9-30.4,63-59.1,63c-32.1,0-56.9-23.5-56.9-61.1c0-39.7,26-63,58.9-63
		C1206.6,153.8,1229.6,178.6,1229.6,214.9z M1135.5,216.1c0,26,15,45.6,36,45.6c20.6,0,36-19.4,36-46.1c0-20.1-10.1-45.6-35.6-45.6
		S1135.5,193.5,1135.5,216.1z"/>
	<path class="st0" d="M1263.5,156.5l23.3,66.7c3.9,10.8,7.1,20.6,9.6,30.4h0.7c2.7-9.8,6.1-19.6,10.1-30.4l23-66.7h22.6l-46.6,118.7
		h-20.6l-45.1-118.7H1263.5z"/>
	<path class="st0" d="M1478,214.9c0,43.9-30.4,63-59.1,63c-32.1,0-56.9-23.5-56.9-61.1c0-39.7,26-63,58.8-63
		C1455,153.8,1478,178.6,1478,214.9z M1383.9,216.1c0,26,15,45.6,36,45.6c20.6,0,36-19.4,36-46.1c0-20.1-10.1-45.6-35.6-45.6
		S1383.9,193.5,1383.9,216.1z"/>
</g>
<g>
	<path class="st0" d="M238.1,160.4c3.7,12.9,3.8,25.8,0.4,38.6c-3.4,12.8-10.1,24.3-20.2,34.3c-10.1,10.1-21.5,16.8-34.3,20.2
		c-12.8,3.4-25.7,3.3-38.7-0.2c-6.9-1.9-13.5-4.8-19.7-8.6c-4-2.5-9.2-1.8-12.6,1.5l-0.1,0.1c-4.7,4.7-3.7,12.6,2,16.1
		c7.6,4.7,15.7,8.2,24.4,10.5c16.3,4.5,32.6,4.5,48.9,0c16.3-4.5,30.9-13.1,43.7-25.9c12.7-12.7,21.2-27.1,25.7-43.5
		c4.5-16.3,4.5-32.6,0-48.9c-2.4-8.6-5.9-16.8-10.5-24.4c-3.5-5.7-11.3-6.7-16.1-2l0,0c-3.4,3.4-4,8.6-1.5,12.6
		C233.3,147,236.2,153.5,238.1,160.4z"/>
	<path class="st0" d="M89.7,197.7c-3.6-13-3.7-25.9-0.4-38.8c3.3-12.9,10-24.4,20.1-34.5c10.1-10.1,21.5-16.8,34.5-20.1
		c12.9-3.3,25.8-3.2,38.7,0.5c6.5,1.8,12.6,4.5,18.4,8c4.6,2.7,10.4,2.1,14.2-1.7l0,0c4.3-4.3,3.6-11.6-1.6-14.8
		c-7.9-5-16.3-8.7-25.3-11.2c-16.3-4.5-32.6-4.5-48.9,0c-16.3,4.5-30.8,13-43.5,25.7c-12.8,12.8-21.5,27.4-25.9,43.7
		c-4.5,16.3-4.5,32.6,0,48.9c2.3,8.5,5.8,16.6,10.4,24.2c3.5,5.8,11.5,6.8,16.3,2l0.3-0.3c3.2-3.2,3.8-8.1,1.4-11.9
		C94.5,211.3,91.6,204.7,89.7,197.7z"/>
</g>
</svg>
